<!DOCTYPE svg PUBLIC "-//W3C//DTD SVG 1.1//EN" "http://www.w3.org/Graphics/SVG/1.1/DTD/svg11.dtd">
<!-- Uploaded to: SVG Repo, www.svgrepo.com, Transformed by: SVG Repo Mixer Tools -->
<svg width="64" height="64" viewBox="-6.4 -6.4 76.80 76.80" xmlns="http://www.w3.org/2000/svg" xmlns:xlink="http://www.w3.org/1999/xlink" aria-hidden="true" role="img" class="iconify iconify--emojione" preserveAspectRatio="xMidYMid meet" fill="#000000">

<g id="SVGRepo_bgCarrier" stroke-width="0">

<path transform="translate(-6.4, -6.4), scale(2.4)" d="M16,31.875514408307417C18.430407401514753,31.329173986717112,19.140469492289576,28.09243482962808,21.057174973303383,26.50133203827461C22.467258082086726,25.330788523556407,24.563844152522126,25.172127165689005,25.753958013059567,23.778521951691292C26.953438173536778,22.373948943044052,26.967690107244287,20.358025456336406,27.737332295864455,18.67896950327982C28.699042559837356,16.580896700469584,31.13925742269299,14.897595673099852,30.875792546585807,12.60469742486016C30.620314513990582,10.381307567143391,28.235896673716567,9.02539631048625,26.47009485794846,7.650377971711611C24.922523614600046,6.44529435408111,22.88089438698953,6.19012585209758,21.24618488198125,5.10618484219162C19.320161551089527,3.8290798470881375,18.284658797418416,1.05558413735885,16.000000000000004,0.7078813633748453C13.784467128911833,0.3706988808087084,11.83740815194982,2.216374506977774,9.9240014534731,3.383059012594467C8.134237379900279,4.474353411746079,6.436371822292239,5.692089335109624,5.133064979422274,7.333908502375001C3.831252735854648,8.973844872971746,3.0851857025449716,10.920245602734354,2.3767511417559373,12.89058234811273C1.6023758998228455,15.044316903627172,0.5077194615861941,17.202839328778843,0.7670834814733851,19.476813791283618C1.032516018612208,21.803993988575677,2.238345922149387,23.987881367754767,3.8376641169486803,25.699139213383C5.397153992338236,27.36778107159251,7.678575236979814,28.0168465142374,9.714975571003896,29.050987704790234C11.7888825349607,30.10417581371378,13.730627473073865,32.38565519471777,16,31.875514408307417" fill="#62a0ea" strokewidth="0"/>

</g>

<g id="SVGRepo_tracerCarrier" stroke-linecap="round" stroke-linejoin="round"/>

<g id="SVGRepo_iconCarrier">

<path d="M2 29.6c15.8-12.6 23.3.5 32.8.5c7.5 0 16.8-13.1 27.2-2.4c-11.9-5.7-16.3 6.5-28.7 6.5c-9.5 0-13.2-11.3-31.3-4.6" fill="#c0bfbc"/>

<path d="M62 39.7c-9.2-7.6-15.1-1.4-22.7 1.8c-4.8 2-9.8 1.5-14.8-3.8c3.6 1.3 11.5 5.6 19.3-2c-6.7 3-15.1.9-21.9-2.5c-7.5-3.7-13.6-4.3-19.9 2.5c3.9-3 9.6-2.3 14-1.1c-2.8.1-8.9.8-14 8.7C17.4 30.5 23 48 35.1 48c11.7 0 10.6-13.1 26.9-8.3" fill="#f6f5f4"/>

<path d="M2 25.3c1.9-5.4 15.2-13.2 25.8.1C13 18.6 2 25.3 2 25.3" fill="#c0bfbc"/>

<path d="M42.1 19.8c6.2-6.8 16.1-3.1 19.9.3c-3.1-.4-12.5-2.4-16.5 2c-6.4 6.8-13.9 5.8-16.3 3.4c0-.1 7.6.2 12.9-5.7" fill="#f6f5f4"/>

<path d="M45.4 35.4c8-13.3 16.6-2.1 16.6-2.1c-9.4-3.3-16.6 2.1-16.6 2.1" fill="#c0bfbc"/>

</g>

</svg>