<!DOCTYPE svg PUBLIC "-//W3C//DTD SVG 1.1//EN" "http://www.w3.org/Graphics/SVG/1.1/DTD/svg11.dtd">
<!-- Uploaded to: SVG Repo, www.svgrepo.com, Transformed by: SVG Repo Mixer Tools -->
<svg height="64" width="64" version="1.1" id="Layer_1" xmlns="http://www.w3.org/2000/svg" xmlns:xlink="http://www.w3.org/1999/xlink" viewBox="0 0 511.999 511.999" xml:space="preserve" fill="#ffffff">

<g id="SVGRepo_bgCarrier" stroke-width="0"/>

<g id="SVGRepo_tracerCarrier" stroke-linecap="round" stroke-linejoin="round"/>

<g id="SVGRepo_iconCarrier"> <path style="fill:#A78966;" d="M217.475,504.401c-29.045,0-52.674-23.629-52.674-52.674c0-8.394,6.805-15.199,15.199-15.199 s15.199,6.805,15.199,15.199c0,12.284,9.993,22.276,22.276,22.276c12.284,0,22.276-9.993,22.276-22.276V165.18 c0-8.394,6.805-15.199,15.199-15.199c8.394,0,15.199,6.805,15.199,15.199v286.548C270.149,480.772,246.52,504.401,217.475,504.401z"/> <path style="fill:#806749;" d="M254.95,149.981c-8.394,0-15.199,6.805-15.199,15.199v105.791c4.978-2.393,10.495-3.678,16.248-3.678 c4.96,0,9.737,0.961,14.149,2.752V165.18C270.149,156.786,263.344,149.981,254.95,149.981z"/> <path style="fill:#46F8FF;" d="M257.584,7.599h-3.166c-111.143,0-202.079,90.936-202.079,202.08v62.23 c4.829,0,9.144-2.2,11.999-5.651c0,0,25.024-29.493,55.889-29.363c22.5,0.094,42.435,10.954,54.787,27.813 c0,0,4.19,7.201,13.112,7.201c8.641,0,13.246-7.422,13.246-7.422c12.365-16.734,32.226-27.591,54.629-27.591 c22.501,0,42.435,10.954,54.787,27.813c0,0,5.119,7.201,13.111,7.201c7.712,0,13.246-7.422,13.246-7.422 c12.365-16.734,32.226-27.591,54.629-27.591c31.113,0,55.889,29.363,55.889,29.363c2.855,3.451,7.17,5.651,11.999,5.651v-62.23 C459.664,98.535,368.728,7.599,257.584,7.599z"/> <g> <path style="fill:#00E7F0;" d="M257.584,7.599h-3.166c-111.143,0-202.079,90.936-202.079,202.08v62.23 c4.829,0,9.144-2.2,11.999-5.651c0,0,25.024-29.493,55.889-29.363c22.5,0.094,42.435,10.954,54.787,27.813 c0,0,4.19,7.201,13.112,7.201C153.693,105.435,257.584,7.599,257.584,7.599z"/> <path style="fill:#00E7F0;" d="M254.417,7.599h3.166c111.144,0,202.08,90.936,202.08,202.08v62.23c-4.829,0-9.144-2.2-11.999-5.651 c0,0-25.025-29.493-55.889-29.363c-22.501,0.094-42.435,10.954-54.787,27.813c0,0-4.19,7.201-13.112,7.201 C358.308,105.435,254.417,7.599,254.417,7.599z"/> </g> <path style="fill:#00D7DF;" d="M254.417,7.599c-111.143,0-202.079,90.936-202.079,202.08v62.23c4.829,0,9.144-2.2,11.999-5.651 c0,0,23.043-27.136,52.174-29.22v-36.245C116.51,62.622,254.417,7.599,254.417,7.599z"/> <g> <path style="fill:#DDFFFB;" d="M116.51,208.392c-4.197,0-7.599-3.402-7.599-7.599c0-35.483,8.83-68.775,26.245-98.953 c2.098-3.635,6.744-4.88,10.381-2.783c3.635,2.098,4.881,6.745,2.783,10.381c-16.065,27.837-24.212,58.574-24.212,91.356 C124.109,204.99,120.707,208.392,116.51,208.392z"/> <path style="fill:#DDFFFB;" d="M375.009,124.737c-2.809,0-5.509-1.563-6.829-4.256c-8.784-17.92-20.781-34.874-35.655-50.389 c-2.904-3.03-2.803-7.841,0.227-10.744c3.03-2.904,7.841-2.803,10.745,0.227c15.96,16.648,28.856,34.889,38.331,54.217 c1.847,3.769,0.29,8.321-3.478,10.169C377.273,124.488,376.132,124.737,375.009,124.737z"/> <path style="fill:#DDFFFB;" d="M394.103,208.392c-4.197,0-7.599-3.402-7.599-7.599c0-13.889-1.472-27.547-4.374-40.595 c-0.912-4.097,1.671-8.157,5.767-9.069c4.101-0.913,8.157,1.671,9.069,5.767c3.144,14.131,4.738,28.899,4.738,43.896 C401.702,204.99,398.3,208.392,394.103,208.392z"/> <path style="fill:#DDFFFB;" d="M256.001,174.096c-4.197,0-7.599-3.402-7.599-7.599V73.953c0-4.197,3.402-7.599,7.599-7.599 c4.197,0,7.599,3.402,7.599,7.599v92.543C263.6,170.693,260.198,174.096,256.001,174.096z"/> </g> <path d="M405.676,61.587C365.962,21.872,308.352,0,255.832,0S146.04,21.872,106.325,61.587 C66.61,101.302,44.738,153.895,44.738,209.68v62.23c0,4.197,3.402,7.599,7.599,7.599c6.927,0,13.434-3.064,17.794-8.333 c0.226-0.266,22.952-26.681,49.89-26.681h0.172c19.393,0.081,37.051,8.989,48.502,24.451c2.578,4.113,9.284,10.562,19.429,10.562 c9.906,0,16.814-6.583,19.505-10.703c6.391-8.575,14.912-15.201,24.523-19.354v202.276c0,8.093-6.584,14.676-14.677,14.676 c-8.093,0-14.677-6.584-14.677-14.676c0-12.571-10.227-22.798-22.798-22.798s-22.798,10.227-22.798,22.798 c0,33.235,27.039,60.272,60.273,60.272s60.273-27.039,60.273-60.272v-64.832c0-4.197-3.402-7.599-7.599-7.599 c-4.197,0-7.599,3.402-7.599,7.599v64.832c0,24.854-20.22,45.073-45.074,45.073s-45.074-20.22-45.074-45.073 c0-4.191,3.409-7.599,7.599-7.599s7.599,3.409,7.599,7.599c0,16.473,13.402,29.875,29.876,29.875s29.876-13.402,29.876-29.875 V245.153c2.849-0.418,5.736-0.658,8.649-0.658c2.2,0,4.384,0.136,6.55,0.376v93.206c0,4.197,3.402,7.599,7.599,7.599 c4.197,0,7.599-3.402,7.599-7.599v-89.468c10.602,4.121,20.01,11.185,26.89,20.564c0.952,1.32,7.88,10.335,19.261,10.335 c11.201,0,18.538-9.406,19.358-10.505c11.338-15.347,29.475-24.508,48.517-24.508c27.119,0,49.862,26.406,50.034,26.607 c4.42,5.342,10.927,8.406,17.853,8.406c4.197,0,7.599-3.402,7.599-7.599v-62.23C467.264,153.895,445.392,101.302,405.676,61.587z M452.065,259.772c-6.001-6.531-30.067-30.476-60.288-30.476c-21.839,0-42.72,9.625-56.937,25.941 c3.477-22.513,7.068-62.879-1.593-106.73c-0.814-4.118-4.813-6.793-8.928-5.983c-4.118,0.814-6.797,4.811-5.983,8.928 c9.442,47.806,3.283,92.27-0.057,110.219c-0.813-0.75-22.086-32.376-62.278-32.376c-40.023,0-61.6,31.887-62.278,32.54 c-4.361-22.904-13.468-90.941,14.412-161.204c1.548-3.901-0.36-8.318-4.261-9.866c-3.9-1.549-8.319,0.359-9.866,4.261 c-18.821,47.431-21.434,93.43-20.313,123.664c0.547,14.745,1.985,27.186,3.425,36.511c-14.205-16.234-35.014-25.814-56.862-25.906 h-0.236c-29.875,0-53.982,23.875-60.085,30.487v-50.103c-0.001-107.236,92.71-194.48,195.894-194.48s196.233,87.244,196.233,194.481 V259.772z"/> </g>

</svg>