<!DOCTYPE svg PUBLIC "-//W3C//DTD SVG 1.1//EN" "http://www.w3.org/Graphics/SVG/1.1/DTD/svg11.dtd">
<!-- Uploaded to: SVG Repo, www.svgrepo.com, Transformed by: SVG Repo Mixer Tools -->
<svg height="800px" width="800px" version="1.1" id="Layer_1" xmlns="http://www.w3.org/2000/svg" xmlns:xlink="http://www.w3.org/1999/xlink" viewBox="0 0 511.999 511.999" xml:space="preserve" fill="#000000">
<g id="SVGRepo_bgCarrier" stroke-width="0"/>
<g id="SVGRepo_tracerCarrier" stroke-linecap="round" stroke-linejoin="round"/>
<g id="SVGRepo_iconCarrier"> <g> <path style="fill:#d6d6d6;" d="M316.226,301.331c35.256,0,63.836-28.58,63.836-63.836s-28.58-63.836-63.836-63.836 c-3.288,0-6.518,0.25-9.673,0.729c-0.024-30.321-24.611-54.893-54.937-54.893c-12.761,0-24.497,4.363-33.824,11.664 c-13.945-17.926-35.72-29.46-60.19-29.46c-40.816,0-74.137,32.084-76.122,72.407c-2.444-0.285-4.925-0.447-7.445-0.447 c-35.257,0-63.837,28.58-63.837,63.836s28.58,63.836,63.836,63.836L316.226,301.331L316.226,301.331z"/> <path style="fill:#d6d6d6;" d="M437.965,410.301c35.256,0,63.836-28.58,63.836-63.836s-28.58-63.836-63.836-63.836 c-3.288,0-6.518,0.25-9.673,0.729c-0.024-30.321-24.611-54.893-54.937-54.893c-12.761,0-24.497,4.363-33.824,11.664 c-13.945-17.926-35.72-29.46-60.19-29.46c-40.815,0-74.137,32.084-76.122,72.407c-2.444-0.285-4.925-0.447-7.445-0.447 c-35.256,0-63.836,28.58-63.836,63.836s28.58,63.836,63.836,63.836L437.965,410.301L437.965,410.301z"/> </g> <g> <path style="fill:#ffffff;" d="M437.965,272.429c-0.133,0-0.266,0-0.399,0.001c-4.404-25.849-24.099-46.554-49.406-52.463 c-3.632-14.917-11.874-28.449-23.621-38.572c-13.52-11.653-30.854-18.021-48.711-17.934c-5.232-30.709-32.043-54.165-64.211-54.165 c-11.396,0-22.303,2.881-32.021,8.404C203.376,100.943,181.259,91.5,157.602,91.5c-42.69,0-78.341,30.884-85.217,71.979 C32.319,164.357,0,197.223,0,237.495c0,40.823,33.212,74.035,74.035,74.035h56.478c-5.596,10.412-8.774,22.309-8.774,34.934 c0,40.823,33.212,74.035,74.035,74.035h242.19c40.823,0,74.035-33.212,74.035-74.035S478.788,272.429,437.965,272.429z M20.398,237.495c0-29.576,24.061-53.637,53.637-53.637c2.028,0,4.079,0.123,6.268,0.378c2.805,0.326,5.618-0.525,7.771-2.35 c2.153-1.825,3.454-4.46,3.593-7.279c1.731-35.164,30.693-62.709,65.935-62.709c20.517,0,39.521,9.303,52.139,25.524 c1.665,2.14,4.111,3.528,6.801,3.86c2.691,0.329,5.4-0.421,7.535-2.091c7.937-6.212,17.459-9.496,27.538-9.496 c24.648,0,44.717,20.054,44.738,44.702c0.002,2.972,1.3,5.794,3.554,7.73c2.253,1.936,5.238,2.793,8.178,2.346 c2.678-0.407,5.418-0.614,8.14-0.614c22.883,0,42.58,14.116,50.242,34.769c-8.897,0.926-17.394,3.643-25.135,8.042 c-16.219-16.756-38.336-26.201-61.992-26.201c-42.69,0-78.341,30.884-85.218,71.979c-18.186,0.399-34.762,7.404-47.458,18.685 h-72.63C44.459,291.132,20.398,267.071,20.398,237.495z M437.965,400.102H195.774c-29.576,0-53.637-24.061-53.637-53.637 c0-29.576,24.061-53.637,53.637-53.637c2.028,0,4.079,0.123,6.268,0.378c2.804,0.328,5.617-0.525,7.771-2.35 c2.153-1.826,3.454-4.461,3.593-7.28c1.731-35.164,30.693-62.709,65.935-62.709c20.517,0,39.521,9.303,52.139,25.523 c1.664,2.14,4.111,3.528,6.801,3.86c2.689,0.33,5.401-0.42,7.535-2.091c7.936-6.212,17.459-9.495,27.538-9.495 c24.648,0,44.717,20.054,44.738,44.702c0.002,2.972,1.3,5.794,3.554,7.73c2.253,1.935,5.237,2.792,8.178,2.346 c2.678-0.407,5.418-0.614,8.14-0.614c29.576,0,53.637,24.061,53.637,53.637C491.601,376.042,467.541,400.102,437.965,400.102z"/> <path style="fill:#ffffff;" d="M304.359,370.231H194.613c-5.633,0-10.199,4.566-10.199,10.199s4.566,10.199,10.199,10.199h109.744 c5.633,0,10.199-4.566,10.199-10.199S309.992,370.231,304.359,370.231z"/> <path style="fill:#ffffff;" d="M340.644,370.231h-4.425c-5.633,0-10.199,4.566-10.199,10.199s4.566,10.199,10.199,10.199h4.425 c5.633,0,10.199-4.566,10.199-10.199S346.277,370.231,340.644,370.231z"/> </g> </g>
</svg>