<!DOCTYPE svg PUBLIC "-//W3C//DTD SVG 1.1//EN" "http://www.w3.org/Graphics/SVG/1.1/DTD/svg11.dtd">

<!-- Uploaded to: SVG Repo, www.svgrepo.com, Transformed by: SVG Repo Mixer Tools -->
<svg height="48" width="48" version="1.1" id="Layer_1" xmlns="http://www.w3.org/2000/svg" xmlns:xlink="http://www.w3.org/1999/xlink" viewBox="0 0 473.931 473.931" xml:space="preserve" fill="#000000">

<g id="SVGRepo_bgCarrier" stroke-width="0"/>

<g id="SVGRepo_tracerCarrier" stroke-linecap="round" stroke-linejoin="round"/>

<g id="SVGRepo_iconCarrier"> <circle style="fill:#ffffff;" cx="236.966" cy="236.966" r="236.966"/> <g> <path style="fill:#626463;" d="M196.364,293.006L125.3,364.073l-11.7-9.201l72.313-72.313L196.364,293.006z"/> <path style="fill:#4C4D4D;" d="M127.078,365.383c-18.701,22.458-44.901,13.092-49.578-10.286 c-1.833-9.179,12.161-21.519,16.838-13.096c-3.742,31.805,18.6,11.106,18.6,11.106s5.919,1.04,9.553,4.67 C126.124,361.405,127.078,365.383,127.078,365.383z"/> <path style="fill:#00c7fc;" d="M262.518,214.811c81.757,81.761,0.037,183.447,0.037,183.447 c-1.134-29.799-29.335-57.997-57.997-57.997c0,0-6.181-24.561-24.101-42.476c-17.912-17.908-40.216-21.844-40.216-21.844 c1.478-27.191-24.666-55.936-57.238-57.238C83,218.706,180.761,133.053,262.518,214.811z"/> <path style="fill:#0042aa;" d="M262.518,214.811c15.618,15.618-45.93,110.232-57.96,125.45c0,0-6.181-24.561-24.101-42.476 c-17.912-17.908-40.216-21.844-40.216-21.844C154.116,262.574,251.038,203.327,262.518,214.811z"/> <ellipse transform="matrix(0.707 -0.7072 0.7072 0.707 -76.082 248.1404)" style="fill:#4B4A4B;" cx="261.431" cy="215.891" rx="6.088" ry="9.526"/> </g> <g> <path style="fill:#0042aa;" d="M317.878,39.764c0,0-25.556,9.624-27.887,11.955c-4.4,4.404-4.4,11.532,0,15.932 c4.408,4.404,11.532,4.404,15.94,0C308.261,65.324,317.878,39.764,317.878,39.764z"/> <path style="fill:#0042aa;" d="M211.829,27.334c0,0-25.549,9.624-27.88,11.951c-4.408,4.404-4.408,11.532-0.007,15.936 c4.408,4.4,11.54,4.4,15.947,0C202.22,52.89,211.829,27.334,211.829,27.334z"/> <path style="fill:#0042aa;" d="M206.347,112.081c0,0-25.556,9.62-27.887,11.951c-4.4,4.404-4.4,11.532,0,15.932 c4.408,4.404,11.54,4.404,15.94,0C196.723,137.641,206.347,112.081,206.347,112.081z"/> <path style="fill:#0042aa;" d="M393.027,81.544c0,0-25.556,9.62-27.887,11.951c-4.4,4.404-4.4,11.532,0,15.936 c4.408,4.4,11.532,4.4,15.94,0C383.411,107.1,393.027,81.544,393.027,81.544z"/> <path style="fill:#0042aa;" d="M354.573,189.277c0,0-25.549,9.624-27.887,11.955c-4.4,4.404-4.4,11.536,0,15.932 c4.408,4.404,11.54,4.404,15.94,0C344.953,214.833,354.573,189.277,354.573,189.277z"/> <path style="fill:#0042aa;" d="M443.342,155.343c0,0-25.564,9.624-27.895,11.955c-4.4,4.404-4.4,11.528,0,15.932 c4.408,4.404,11.54,4.404,15.94,0C433.719,180.899,443.342,155.343,443.342,155.343z"/> <path style="fill:#0042aa;" d="M435.028,247.263c0,0-25.549,9.624-27.887,11.951c-4.4,4.404-4.4,11.536,0,15.936 c4.408,4.404,11.54,4.404,15.94,0C425.408,272.819,435.028,247.263,435.028,247.263z"/> <path style="fill:#0042aa;" d="M355.441,260.651c0,0-25.549,9.628-27.88,11.955c-4.408,4.404-4.408,11.532-0.007,15.932 c4.408,4.4,11.54,4.4,15.947,0C345.832,286.207,355.441,260.651,355.441,260.651z"/> <path style="fill:#0042aa;" d="M291.831,128.732c0,0-25.549,9.628-27.88,11.955c-4.408,4.404-4.408,11.532-0.007,15.932 c4.408,4.4,11.54,4.4,15.947,0C282.222,154.288,291.831,128.732,291.831,128.732z"/> </g> </g>

</svg>